<?xml version="1.0" encoding="utf-8" standalone="no"?>
<!DOCTYPE svg PUBLIC "-//W3C//DTD SVG 1.1//EN"
  "http://www.w3.org/Graphics/SVG/1.1/DTD/svg11.dtd">
<svg xmlns:xlink="http://www.w3.org/1999/xlink" width="374.630884pt" height="251.080296pt" viewBox="0 0 374.630884 251.080296" xmlns="http://www.w3.org/2000/svg" version="1.1">
 <metadata>
  <rdf:RDF xmlns:dc="http://purl.org/dc/elements/1.1/" xmlns:cc="http://creativecommons.org/ns#" xmlns:rdf="http://www.w3.org/1999/02/22-rdf-syntax-ns#">
   <cc:Work>
    <dc:type rdf:resource="http://purl.org/dc/dcmitype/StillImage"/>
    <dc:date>2025-05-14T23:28:22.083216</dc:date>
    <dc:format>image/svg+xml</dc:format>
    <dc:creator>
     <cc:Agent>
      <dc:title>Matplotlib v3.10.3, https://matplotlib.org/</dc:title>
     </cc:Agent>
    </dc:creator>
   </cc:Work>
  </rdf:RDF>
 </metadata>
 <defs>
  <style type="text/css">*{stroke-linejoin: round; stroke-linecap: butt}</style>
 </defs>
 <g id="figure_1">
  <g id="patch_1">
   <path d="M 0 251.080296 
L 374.630884 251.080296 
L 374.630884 0 
L 0 0 
z
" style="fill: #ffffff"/>
  </g>
  <g id="axes_1">
   <g id="patch_2">
    <path d="M 32.630884 228.96 
L 367.430884 228.96 
L 367.430884 7.2 
L 32.630884 7.2 
z
" style="fill: #ffffff"/>
   </g>
   <g id="patch_3">
    <path d="M 47.849066 228.96 
L 50.892702 228.96 
L 50.892702 107.265263 
L 47.849066 107.265263 
z
" clip-path="url(#p176d9b4039)" style="fill: #1f77b4"/>
   </g>
   <g id="patch_4">
    <path d="M 50.892702 228.96 
L 53.936339 228.96 
L 53.936339 109.465263 
L 50.892702 109.465263 
z
" clip-path="url(#p176d9b4039)" style="fill: #1f77b4"/>
   </g>
   <g id="patch_5">
    <path d="M 53.936339 228.96 
L 56.979975 228.96 
L 56.979975 113.517895 
L 53.936339 113.517895 
z
" clip-path="url(#p176d9b4039)" style="fill: #1f77b4"/>
   </g>
   <g id="patch_6">
    <path d="M 56.979975 228.96 
L 60.023611 228.96 
L 60.023611 109.349474 
L 56.979975 109.349474 
z
" clip-path="url(#p176d9b4039)" style="fill: #1f77b4"/>
   </g>
   <g id="patch_7">
    <path d="M 60.023611 228.96 
L 63.067248 228.96 
L 63.067248 106.223158 
L 60.023611 106.223158 
z
" clip-path="url(#p176d9b4039)" style="fill: #1f77b4"/>
   </g>
   <g id="patch_8">
    <path d="M 63.067248 228.96 
L 66.110884 228.96 
L 66.110884 113.170526 
L 63.067248 113.170526 
z
" clip-path="url(#p176d9b4039)" style="fill: #1f77b4"/>
   </g>
   <g id="patch_9">
    <path d="M 66.110884 228.96 
L 69.154521 228.96 
L 69.154521 112.475789 
L 66.110884 112.475789 
z
" clip-path="url(#p176d9b4039)" style="fill: #1f77b4"/>
   </g>
   <g id="patch_10">
    <path d="M 69.154521 228.96 
L 72.198157 228.96 
L 72.198157 112.938947 
L 69.154521 112.938947 
z
" clip-path="url(#p176d9b4039)" style="fill: #1f77b4"/>
   </g>
   <g id="patch_11">
    <path d="M 72.198157 228.96 
L 75.241793 228.96 
L 75.241793 114.096842 
L 72.198157 114.096842 
z
" clip-path="url(#p176d9b4039)" style="fill: #1f77b4"/>
   </g>
   <g id="patch_12">
    <path d="M 75.241793 228.96 
L 78.28543 228.96 
L 78.28543 110.391579 
L 75.241793 110.391579 
z
" clip-path="url(#p176d9b4039)" style="fill: #1f77b4"/>
   </g>
   <g id="patch_13">
    <path d="M 78.28543 228.96 
L 81.329066 228.96 
L 81.329066 106.686316 
L 78.28543 106.686316 
z
" clip-path="url(#p176d9b4039)" style="fill: #1f77b4"/>
   </g>
   <g id="patch_14">
    <path d="M 81.329066 228.96 
L 84.372702 228.96 
L 84.372702 117.223158 
L 81.329066 117.223158 
z
" clip-path="url(#p176d9b4039)" style="fill: #1f77b4"/>
   </g>
   <g id="patch_15">
    <path d="M 84.372702 228.96 
L 87.416339 228.96 
L 87.416339 111.202105 
L 84.372702 111.202105 
z
" clip-path="url(#p176d9b4039)" style="fill: #1f77b4"/>
   </g>
   <g id="patch_16">
    <path d="M 87.416339 228.96 
L 90.459975 228.96 
L 90.459975 110.391579 
L 87.416339 110.391579 
z
" clip-path="url(#p176d9b4039)" style="fill: #1f77b4"/>
   </g>
   <g id="patch_17">
    <path d="M 90.459975 228.96 
L 93.503611 228.96 
L 93.503611 115.833684 
L 90.459975 115.833684 
z
" clip-path="url(#p176d9b4039)" style="fill: #1f77b4"/>
   </g>
   <g id="patch_18">
    <path d="M 93.503611 228.96 
L 96.547248 228.96 
L 96.547248 109.812632 
L 93.503611 109.812632 
z
" clip-path="url(#p176d9b4039)" style="fill: #1f77b4"/>
   </g>
   <g id="patch_19">
    <path d="M 96.547248 228.96 
L 99.590884 228.96 
L 99.590884 114.675789 
L 96.547248 114.675789 
z
" clip-path="url(#p176d9b4039)" style="fill: #1f77b4"/>
   </g>
   <g id="patch_20">
    <path d="M 99.590884 228.96 
L 102.634521 228.96 
L 102.634521 110.623158 
L 99.590884 110.623158 
z
" clip-path="url(#p176d9b4039)" style="fill: #1f77b4"/>
   </g>
   <g id="patch_21">
    <path d="M 102.634521 228.96 
L 105.678157 228.96 
L 105.678157 102.865263 
L 102.634521 102.865263 
z
" clip-path="url(#p176d9b4039)" style="fill: #1f77b4"/>
   </g>
   <g id="patch_22">
    <path d="M 105.678157 228.96 
L 108.721793 228.96 
L 108.721793 105.412632 
L 105.678157 105.412632 
z
" clip-path="url(#p176d9b4039)" style="fill: #1f77b4"/>
   </g>
   <g id="patch_23">
    <path d="M 108.721793 228.96 
L 111.76543 228.96 
L 111.76543 105.875789 
L 108.721793 105.875789 
z
" clip-path="url(#p176d9b4039)" style="fill: #1f77b4"/>
   </g>
   <g id="patch_24">
    <path d="M 111.76543 228.96 
L 114.809066 228.96 
L 114.809066 103.328421 
L 111.76543 103.328421 
z
" clip-path="url(#p176d9b4039)" style="fill: #1f77b4"/>
   </g>
   <g id="patch_25">
    <path d="M 114.809066 228.96 
L 117.852702 228.96 
L 117.852702 94.644211 
L 114.809066 94.644211 
z
" clip-path="url(#p176d9b4039)" style="fill: #1f77b4"/>
   </g>
   <g id="patch_26">
    <path d="M 117.852702 228.96 
L 120.896339 228.96 
L 120.896339 88.623158 
L 117.852702 88.623158 
z
" clip-path="url(#p176d9b4039)" style="fill: #1f77b4"/>
   </g>
   <g id="patch_27">
    <path d="M 120.896339 228.96 
L 123.939975 228.96 
L 123.939975 89.317895 
L 120.896339 89.317895 
z
" clip-path="url(#p176d9b4039)" style="fill: #1f77b4"/>
   </g>
   <g id="patch_28">
    <path d="M 123.939975 228.96 
L 126.983611 228.96 
L 126.983611 85.728421 
L 123.939975 85.728421 
z
" clip-path="url(#p176d9b4039)" style="fill: #1f77b4"/>
   </g>
   <g id="patch_29">
    <path d="M 126.983611 228.96 
L 130.027248 228.96 
L 130.027248 83.991579 
L 126.983611 83.991579 
z
" clip-path="url(#p176d9b4039)" style="fill: #1f77b4"/>
   </g>
   <g id="patch_30">
    <path d="M 130.027248 228.96 
L 133.070884 228.96 
L 133.070884 80.286316 
L 130.027248 80.286316 
z
" clip-path="url(#p176d9b4039)" style="fill: #1f77b4"/>
   </g>
   <g id="patch_31">
    <path d="M 133.070884 228.96 
L 136.114521 228.96 
L 136.114521 66.623158 
L 133.070884 66.623158 
z
" clip-path="url(#p176d9b4039)" style="fill: #1f77b4"/>
   </g>
   <g id="patch_32">
    <path d="M 136.114521 228.96 
L 139.158157 228.96 
L 139.158157 65.465263 
L 136.114521 65.465263 
z
" clip-path="url(#p176d9b4039)" style="fill: #1f77b4"/>
   </g>
   <g id="patch_33">
    <path d="M 139.158157 228.96 
L 142.201793 228.96 
L 142.201793 62.686316 
L 139.158157 62.686316 
z
" clip-path="url(#p176d9b4039)" style="fill: #1f77b4"/>
   </g>
   <g id="patch_34">
    <path d="M 142.201793 228.96 
L 145.24543 228.96 
L 145.24543 46.707368 
L 142.201793 46.707368 
z
" clip-path="url(#p176d9b4039)" style="fill: #1f77b4"/>
   </g>
   <g id="patch_35">
    <path d="M 145.24543 228.96 
L 148.289066 228.96 
L 148.289066 47.865263 
L 145.24543 47.865263 
z
" clip-path="url(#p176d9b4039)" style="fill: #1f77b4"/>
   </g>
   <g id="patch_36">
    <path d="M 148.289066 228.96 
L 151.332702 228.96 
L 151.332702 49.370526 
L 148.289066 49.370526 
z
" clip-path="url(#p176d9b4039)" style="fill: #1f77b4"/>
   </g>
   <g id="patch_37">
    <path d="M 151.332702 228.96 
L 154.376339 228.96 
L 154.376339 38.023158 
L 151.332702 38.023158 
z
" clip-path="url(#p176d9b4039)" style="fill: #1f77b4"/>
   </g>
   <g id="patch_38">
    <path d="M 154.376339 228.96 
L 157.419975 228.96 
L 157.419975 34.202105 
L 154.376339 34.202105 
z
" clip-path="url(#p176d9b4039)" style="fill: #1f77b4"/>
   </g>
   <g id="patch_39">
    <path d="M 157.419975 228.96 
L 160.463611 228.96 
L 160.463611 21.812632 
L 157.419975 21.812632 
z
" clip-path="url(#p176d9b4039)" style="fill: #1f77b4"/>
   </g>
   <g id="patch_40">
    <path d="M 160.463611 228.96 
L 163.507248 228.96 
L 163.507248 18.107368 
L 160.463611 18.107368 
z
" clip-path="url(#p176d9b4039)" style="fill: #1f77b4"/>
   </g>
   <g id="patch_41">
    <path d="M 163.507248 228.96 
L 166.550884 228.96 
L 166.550884 26.096842 
L 163.507248 26.096842 
z
" clip-path="url(#p176d9b4039)" style="fill: #1f77b4"/>
   </g>
   <g id="patch_42">
    <path d="M 166.550884 228.96 
L 169.594521 228.96 
L 169.594521 23.896842 
L 166.550884 23.896842 
z
" clip-path="url(#p176d9b4039)" style="fill: #1f77b4"/>
   </g>
   <g id="patch_43">
    <path d="M 169.594521 228.96 
L 172.638157 228.96 
L 172.638157 19.844211 
L 169.594521 19.844211 
z
" clip-path="url(#p176d9b4039)" style="fill: #1f77b4"/>
   </g>
   <g id="patch_44">
    <path d="M 172.638157 228.96 
L 175.681793 228.96 
L 175.681793 17.76 
L 172.638157 17.76 
z
" clip-path="url(#p176d9b4039)" style="fill: #1f77b4"/>
   </g>
   <g id="patch_45">
    <path d="M 175.681793 228.96 
L 178.72543 228.96 
L 178.72543 18.802105 
L 175.681793 18.802105 
z
" clip-path="url(#p176d9b4039)" style="fill: #1f77b4"/>
   </g>
   <g id="patch_46">
    <path d="M 178.72543 228.96 
L 181.769066 228.96 
L 181.769066 26.675789 
L 178.72543 26.675789 
z
" clip-path="url(#p176d9b4039)" style="fill: #1f77b4"/>
   </g>
   <g id="patch_47">
    <path d="M 181.769066 228.96 
L 184.812702 228.96 
L 184.812702 23.665263 
L 181.769066 23.665263 
z
" clip-path="url(#p176d9b4039)" style="fill: #1f77b4"/>
   </g>
   <g id="patch_48">
    <path d="M 184.812702 228.96 
L 187.856339 228.96 
L 187.856339 37.328421 
L 184.812702 37.328421 
z
" clip-path="url(#p176d9b4039)" style="fill: #1f77b4"/>
   </g>
   <g id="patch_49">
    <path d="M 187.856339 228.96 
L 190.899975 228.96 
L 190.899975 38.602105 
L 187.856339 38.602105 
z
" clip-path="url(#p176d9b4039)" style="fill: #1f77b4"/>
   </g>
   <g id="patch_50">
    <path d="M 190.899975 228.96 
L 193.943611 228.96 
L 193.943611 31.191579 
L 190.899975 31.191579 
z
" clip-path="url(#p176d9b4039)" style="fill: #1f77b4"/>
   </g>
   <g id="patch_51">
    <path d="M 193.943611 228.96 
L 196.987248 228.96 
L 196.987248 46.244211 
L 193.943611 46.244211 
z
" clip-path="url(#p176d9b4039)" style="fill: #1f77b4"/>
   </g>
   <g id="patch_52">
    <path d="M 196.987248 228.96 
L 200.030884 228.96 
L 200.030884 51.917895 
L 196.987248 51.917895 
z
" clip-path="url(#p176d9b4039)" style="fill: #1f77b4"/>
   </g>
   <g id="patch_53">
    <path d="M 200.030884 228.96 
L 203.074521 228.96 
L 203.074521 59.444211 
L 200.030884 59.444211 
z
" clip-path="url(#p176d9b4039)" style="fill: #1f77b4"/>
   </g>
   <g id="patch_54">
    <path d="M 203.074521 228.96 
L 206.118157 228.96 
L 206.118157 57.128421 
L 203.074521 57.128421 
z
" clip-path="url(#p176d9b4039)" style="fill: #1f77b4"/>
   </g>
   <g id="patch_55">
    <path d="M 206.118157 228.96 
L 209.161793 228.96 
L 209.161793 71.486316 
L 206.118157 71.486316 
z
" clip-path="url(#p176d9b4039)" style="fill: #1f77b4"/>
   </g>
   <g id="patch_56">
    <path d="M 209.161793 228.96 
L 212.20543 228.96 
L 212.20543 68.128421 
L 209.161793 68.128421 
z
" clip-path="url(#p176d9b4039)" style="fill: #1f77b4"/>
   </g>
   <g id="patch_57">
    <path d="M 212.20543 228.96 
L 215.249066 228.96 
L 215.249066 79.475789 
L 212.20543 79.475789 
z
" clip-path="url(#p176d9b4039)" style="fill: #1f77b4"/>
   </g>
   <g id="patch_58">
    <path d="M 215.249066 228.96 
L 218.292702 228.96 
L 218.292702 82.602105 
L 215.249066 82.602105 
z
" clip-path="url(#p176d9b4039)" style="fill: #1f77b4"/>
   </g>
   <g id="patch_59">
    <path d="M 218.292702 228.96 
L 221.336339 228.96 
L 221.336339 82.717895 
L 218.292702 82.717895 
z
" clip-path="url(#p176d9b4039)" style="fill: #1f77b4"/>
   </g>
   <g id="patch_60">
    <path d="M 221.336339 228.96 
L 224.379975 228.96 
L 224.379975 90.244211 
L 221.336339 90.244211 
z
" clip-path="url(#p176d9b4039)" style="fill: #1f77b4"/>
   </g>
   <g id="patch_61">
    <path d="M 224.379975 228.96 
L 227.423611 228.96 
L 227.423611 92.675789 
L 224.379975 92.675789 
z
" clip-path="url(#p176d9b4039)" style="fill: #1f77b4"/>
   </g>
   <g id="patch_62">
    <path d="M 227.423611 228.96 
L 230.467248 228.96 
L 230.467248 98.002105 
L 227.423611 98.002105 
z
" clip-path="url(#p176d9b4039)" style="fill: #1f77b4"/>
   </g>
   <g id="patch_63">
    <path d="M 230.467248 228.96 
L 233.510884 228.96 
L 233.510884 96.381053 
L 230.467248 96.381053 
z
" clip-path="url(#p176d9b4039)" style="fill: #1f77b4"/>
   </g>
   <g id="patch_64">
    <path d="M 233.510884 228.96 
L 236.554521 228.96 
L 236.554521 108.654737 
L 233.510884 108.654737 
z
" clip-path="url(#p176d9b4039)" style="fill: #1f77b4"/>
   </g>
   <g id="patch_65">
    <path d="M 236.554521 228.96 
L 239.598157 228.96 
L 239.598157 99.970526 
L 236.554521 99.970526 
z
" clip-path="url(#p176d9b4039)" style="fill: #1f77b4"/>
   </g>
   <g id="patch_66">
    <path d="M 239.598157 228.96 
L 242.641793 228.96 
L 242.641793 107.149474 
L 239.598157 107.149474 
z
" clip-path="url(#p176d9b4039)" style="fill: #1f77b4"/>
   </g>
   <g id="patch_67">
    <path d="M 242.641793 228.96 
L 245.68543 228.96 
L 245.68543 107.496842 
L 242.641793 107.496842 
z
" clip-path="url(#p176d9b4039)" style="fill: #1f77b4"/>
   </g>
   <g id="patch_68">
    <path d="M 245.68543 228.96 
L 248.729066 228.96 
L 248.729066 105.76 
L 245.68543 105.76 
z
" clip-path="url(#p176d9b4039)" style="fill: #1f77b4"/>
   </g>
   <g id="patch_69">
    <path d="M 248.729066 228.96 
L 251.772702 228.96 
L 251.772702 97.886316 
L 248.729066 97.886316 
z
" clip-path="url(#p176d9b4039)" style="fill: #1f77b4"/>
   </g>
   <g id="patch_70">
    <path d="M 251.772702 228.96 
L 254.816339 228.96 
L 254.816339 110.854737 
L 251.772702 110.854737 
z
" clip-path="url(#p176d9b4039)" style="fill: #1f77b4"/>
   </g>
   <g id="patch_71">
    <path d="M 254.816339 228.96 
L 257.859975 228.96 
L 257.859975 114.096842 
L 254.816339 114.096842 
z
" clip-path="url(#p176d9b4039)" style="fill: #1f77b4"/>
   </g>
   <g id="patch_72">
    <path d="M 257.859975 228.96 
L 260.903611 228.96 
L 260.903611 112.012632 
L 257.859975 112.012632 
z
" clip-path="url(#p176d9b4039)" style="fill: #1f77b4"/>
   </g>
   <g id="patch_73">
    <path d="M 260.903611 228.96 
L 263.947248 228.96 
L 263.947248 113.517895 
L 260.903611 113.517895 
z
" clip-path="url(#p176d9b4039)" style="fill: #1f77b4"/>
   </g>
   <g id="patch_74">
    <path d="M 263.947248 228.96 
L 266.990884 228.96 
L 266.990884 108.191579 
L 263.947248 108.191579 
z
" clip-path="url(#p176d9b4039)" style="fill: #1f77b4"/>
   </g>
   <g id="patch_75">
    <path d="M 266.990884 228.96 
L 270.034521 228.96 
L 270.034521 113.633684 
L 266.990884 113.633684 
z
" clip-path="url(#p176d9b4039)" style="fill: #1f77b4"/>
   </g>
   <g id="patch_76">
    <path d="M 270.034521 228.96 
L 273.078157 228.96 
L 273.078157 117.454737 
L 270.034521 117.454737 
z
" clip-path="url(#p176d9b4039)" style="fill: #1f77b4"/>
   </g>
   <g id="patch_77">
    <path d="M 273.078157 228.96 
L 276.121793 228.96 
L 276.121793 113.865263 
L 273.078157 113.865263 
z
" clip-path="url(#p176d9b4039)" style="fill: #1f77b4"/>
   </g>
   <g id="patch_78">
    <path d="M 276.121793 228.96 
L 279.16543 228.96 
L 279.16543 111.665263 
L 276.121793 111.665263 
z
" clip-path="url(#p176d9b4039)" style="fill: #1f77b4"/>
   </g>
   <g id="patch_79">
    <path d="M 279.16543 228.96 
L 282.209066 228.96 
L 282.209066 109.349474 
L 279.16543 109.349474 
z
" clip-path="url(#p176d9b4039)" style="fill: #1f77b4"/>
   </g>
   <g id="patch_80">
    <path d="M 282.209066 228.96 
L 285.252702 228.96 
L 285.252702 115.833684 
L 282.209066 115.833684 
z
" clip-path="url(#p176d9b4039)" style="fill: #1f77b4"/>
   </g>
   <g id="patch_81">
    <path d="M 285.252702 228.96 
L 288.296339 228.96 
L 288.296339 116.528421 
L 285.252702 116.528421 
z
" clip-path="url(#p176d9b4039)" style="fill: #1f77b4"/>
   </g>
   <g id="patch_82">
    <path d="M 288.296339 228.96 
L 291.339975 228.96 
L 291.339975 113.749474 
L 288.296339 113.749474 
z
" clip-path="url(#p176d9b4039)" style="fill: #1f77b4"/>
   </g>
   <g id="patch_83">
    <path d="M 291.339975 228.96 
L 294.383611 228.96 
L 294.383611 109.002105 
L 291.339975 109.002105 
z
" clip-path="url(#p176d9b4039)" style="fill: #1f77b4"/>
   </g>
   <g id="patch_84">
    <path d="M 294.383611 228.96 
L 297.427248 228.96 
L 297.427248 116.644211 
L 294.383611 116.644211 
z
" clip-path="url(#p176d9b4039)" style="fill: #1f77b4"/>
   </g>
   <g id="patch_85">
    <path d="M 297.427248 228.96 
L 300.470884 228.96 
L 300.470884 112.012632 
L 297.427248 112.012632 
z
" clip-path="url(#p176d9b4039)" style="fill: #1f77b4"/>
   </g>
   <g id="patch_86">
    <path d="M 300.470884 228.96 
L 303.514521 228.96 
L 303.514521 114.444211 
L 300.470884 114.444211 
z
" clip-path="url(#p176d9b4039)" style="fill: #1f77b4"/>
   </g>
   <g id="patch_87">
    <path d="M 303.514521 228.96 
L 306.558157 228.96 
L 306.558157 109.812632 
L 303.514521 109.812632 
z
" clip-path="url(#p176d9b4039)" style="fill: #1f77b4"/>
   </g>
   <g id="patch_88">
    <path d="M 306.558157 228.96 
L 309.601793 228.96 
L 309.601793 117.107368 
L 306.558157 117.107368 
z
" clip-path="url(#p176d9b4039)" style="fill: #1f77b4"/>
   </g>
   <g id="patch_89">
    <path d="M 309.601793 228.96 
L 312.64543 228.96 
L 312.64543 112.591579 
L 309.601793 112.591579 
z
" clip-path="url(#p176d9b4039)" style="fill: #1f77b4"/>
   </g>
   <g id="patch_90">
    <path d="M 312.64543 228.96 
L 315.689066 228.96 
L 315.689066 113.865263 
L 312.64543 113.865263 
z
" clip-path="url(#p176d9b4039)" style="fill: #1f77b4"/>
   </g>
   <g id="patch_91">
    <path d="M 315.689066 228.96 
L 318.732702 228.96 
L 318.732702 108.538947 
L 315.689066 108.538947 
z
" clip-path="url(#p176d9b4039)" style="fill: #1f77b4"/>
   </g>
   <g id="patch_92">
    <path d="M 318.732702 228.96 
L 321.776339 228.96 
L 321.776339 116.296842 
L 318.732702 116.296842 
z
" clip-path="url(#p176d9b4039)" style="fill: #1f77b4"/>
   </g>
   <g id="patch_93">
    <path d="M 321.776339 228.96 
L 324.819975 228.96 
L 324.819975 112.36 
L 321.776339 112.36 
z
" clip-path="url(#p176d9b4039)" style="fill: #1f77b4"/>
   </g>
   <g id="patch_94">
    <path d="M 324.819975 228.96 
L 327.863611 228.96 
L 327.863611 110.275789 
L 324.819975 110.275789 
z
" clip-path="url(#p176d9b4039)" style="fill: #1f77b4"/>
   </g>
   <g id="patch_95">
    <path d="M 327.863611 228.96 
L 330.907248 228.96 
L 330.907248 109.233684 
L 327.863611 109.233684 
z
" clip-path="url(#p176d9b4039)" style="fill: #1f77b4"/>
   </g>
   <g id="patch_96">
    <path d="M 330.907248 228.96 
L 333.950884 228.96 
L 333.950884 120.233684 
L 330.907248 120.233684 
z
" clip-path="url(#p176d9b4039)" style="fill: #1f77b4"/>
   </g>
   <g id="patch_97">
    <path d="M 333.950884 228.96 
L 336.994521 228.96 
L 336.994521 109.812632 
L 333.950884 109.812632 
z
" clip-path="url(#p176d9b4039)" style="fill: #1f77b4"/>
   </g>
   <g id="patch_98">
    <path d="M 336.994521 228.96 
L 340.038157 228.96 
L 340.038157 116.412632 
L 336.994521 116.412632 
z
" clip-path="url(#p176d9b4039)" style="fill: #1f77b4"/>
   </g>
   <g id="patch_99">
    <path d="M 340.038157 228.96 
L 343.081793 228.96 
L 343.081793 119.538947 
L 340.038157 119.538947 
z
" clip-path="url(#p176d9b4039)" style="fill: #1f77b4"/>
   </g>
   <g id="patch_100">
    <path d="M 343.081793 228.96 
L 346.12543 228.96 
L 346.12543 117.917895 
L 343.081793 117.917895 
z
" clip-path="url(#p176d9b4039)" style="fill: #1f77b4"/>
   </g>
   <g id="patch_101">
    <path d="M 346.12543 228.96 
L 349.169066 228.96 
L 349.169066 114.096842 
L 346.12543 114.096842 
z
" clip-path="url(#p176d9b4039)" style="fill: #1f77b4"/>
   </g>
   <g id="patch_102">
    <path d="M 349.169066 228.96 
L 352.212702 228.96 
L 352.212702 106.802105 
L 349.169066 106.802105 
z
" clip-path="url(#p176d9b4039)" style="fill: #1f77b4"/>
   </g>
   <g id="patch_103">
    <path d="M 47.849066 228.96 
L 50.892702 228.96 
L 50.892702 107.265263 
L 47.849066 107.265263 
z
" clip-path="url(#p176d9b4039)" style="fill: #ff7f0e"/>
   </g>
   <g id="patch_104">
    <path d="M 50.892702 228.96 
L 53.936339 228.96 
L 53.936339 109.581053 
L 50.892702 109.581053 
z
" clip-path="url(#p176d9b4039)" style="fill: #ff7f0e"/>
   </g>
   <g id="patch_105">
    <path d="M 53.936339 228.96 
L 56.979975 228.96 
L 56.979975 113.749474 
L 53.936339 113.749474 
z
" clip-path="url(#p176d9b4039)" style="fill: #ff7f0e"/>
   </g>
   <g id="patch_106">
    <path d="M 56.979975 228.96 
L 60.023611 228.96 
L 60.023611 109.465263 
L 56.979975 109.465263 
z
" clip-path="url(#p176d9b4039)" style="fill: #ff7f0e"/>
   </g>
   <g id="patch_107">
    <path d="M 60.023611 228.96 
L 63.067248 228.96 
L 63.067248 106.686316 
L 60.023611 106.686316 
z
" clip-path="url(#p176d9b4039)" style="fill: #ff7f0e"/>
   </g>
   <g id="patch_108">
    <path d="M 63.067248 228.96 
L 66.110884 228.96 
L 66.110884 113.170526 
L 63.067248 113.170526 
z
" clip-path="url(#p176d9b4039)" style="fill: #ff7f0e"/>
   </g>
   <g id="patch_109">
    <path d="M 66.110884 228.96 
L 69.154521 228.96 
L 69.154521 112.475789 
L 66.110884 112.475789 
z
" clip-path="url(#p176d9b4039)" style="fill: #ff7f0e"/>
   </g>
   <g id="patch_110">
    <path d="M 69.154521 228.96 
L 72.198157 228.96 
L 72.198157 113.170526 
L 69.154521 113.170526 
z
" clip-path="url(#p176d9b4039)" style="fill: #ff7f0e"/>
   </g>
   <g id="patch_111">
    <path d="M 72.198157 228.96 
L 75.241793 228.96 
L 75.241793 114.56 
L 72.198157 114.56 
z
" clip-path="url(#p176d9b4039)" style="fill: #ff7f0e"/>
   </g>
   <g id="patch_112">
    <path d="M 75.241793 228.96 
L 78.28543 228.96 
L 78.28543 111.433684 
L 75.241793 111.433684 
z
" clip-path="url(#p176d9b4039)" style="fill: #ff7f0e"/>
   </g>
   <g id="patch_113">
    <path d="M 78.28543 228.96 
L 81.329066 228.96 
L 81.329066 107.612632 
L 78.28543 107.612632 
z
" clip-path="url(#p176d9b4039)" style="fill: #ff7f0e"/>
   </g>
   <g id="patch_114">
    <path d="M 81.329066 228.96 
L 84.372702 228.96 
L 84.372702 118.612632 
L 81.329066 118.612632 
z
" clip-path="url(#p176d9b4039)" style="fill: #ff7f0e"/>
   </g>
   <g id="patch_115">
    <path d="M 84.372702 228.96 
L 87.416339 228.96 
L 87.416339 112.938947 
L 84.372702 112.938947 
z
" clip-path="url(#p176d9b4039)" style="fill: #ff7f0e"/>
   </g>
   <g id="patch_116">
    <path d="M 87.416339 228.96 
L 90.459975 228.96 
L 90.459975 112.475789 
L 87.416339 112.475789 
z
" clip-path="url(#p176d9b4039)" style="fill: #ff7f0e"/>
   </g>
   <g id="patch_117">
    <path d="M 90.459975 228.96 
L 93.503611 228.96 
L 93.503611 117.570526 
L 90.459975 117.570526 
z
" clip-path="url(#p176d9b4039)" style="fill: #ff7f0e"/>
   </g>
   <g id="patch_118">
    <path d="M 93.503611 228.96 
L 96.547248 228.96 
L 96.547248 113.981053 
L 93.503611 113.981053 
z
" clip-path="url(#p176d9b4039)" style="fill: #ff7f0e"/>
   </g>
   <g id="patch_119">
    <path d="M 96.547248 228.96 
L 99.590884 228.96 
L 99.590884 120.233684 
L 96.547248 120.233684 
z
" clip-path="url(#p176d9b4039)" style="fill: #ff7f0e"/>
   </g>
   <g id="patch_120">
    <path d="M 99.590884 228.96 
L 102.634521 228.96 
L 102.634521 116.181053 
L 99.590884 116.181053 
z
" clip-path="url(#p176d9b4039)" style="fill: #ff7f0e"/>
   </g>
   <g id="patch_121">
    <path d="M 102.634521 228.96 
L 105.678157 228.96 
L 105.678157 110.854737 
L 102.634521 110.854737 
z
" clip-path="url(#p176d9b4039)" style="fill: #ff7f0e"/>
   </g>
   <g id="patch_122">
    <path d="M 105.678157 228.96 
L 108.721793 228.96 
L 108.721793 115.254737 
L 105.678157 115.254737 
z
" clip-path="url(#p176d9b4039)" style="fill: #ff7f0e"/>
   </g>
   <g id="patch_123">
    <path d="M 108.721793 228.96 
L 111.76543 228.96 
L 111.76543 116.991579 
L 108.721793 116.991579 
z
" clip-path="url(#p176d9b4039)" style="fill: #ff7f0e"/>
   </g>
   <g id="patch_124">
    <path d="M 111.76543 228.96 
L 114.809066 228.96 
L 114.809066 116.528421 
L 111.76543 116.528421 
z
" clip-path="url(#p176d9b4039)" style="fill: #ff7f0e"/>
   </g>
   <g id="patch_125">
    <path d="M 114.809066 228.96 
L 117.852702 228.96 
L 117.852702 112.36 
L 114.809066 112.36 
z
" clip-path="url(#p176d9b4039)" style="fill: #ff7f0e"/>
   </g>
   <g id="patch_126">
    <path d="M 117.852702 228.96 
L 120.896339 228.96 
L 120.896339 108.423158 
L 117.852702 108.423158 
z
" clip-path="url(#p176d9b4039)" style="fill: #ff7f0e"/>
   </g>
   <g id="patch_127">
    <path d="M 120.896339 228.96 
L 123.939975 228.96 
L 123.939975 112.707368 
L 120.896339 112.707368 
z
" clip-path="url(#p176d9b4039)" style="fill: #ff7f0e"/>
   </g>
   <g id="patch_128">
    <path d="M 123.939975 228.96 
L 126.983611 228.96 
L 126.983611 113.749474 
L 123.939975 113.749474 
z
" clip-path="url(#p176d9b4039)" style="fill: #ff7f0e"/>
   </g>
   <g id="patch_129">
    <path d="M 126.983611 228.96 
L 130.027248 228.96 
L 130.027248 114.907368 
L 126.983611 114.907368 
z
" clip-path="url(#p176d9b4039)" style="fill: #ff7f0e"/>
   </g>
   <g id="patch_130">
    <path d="M 130.027248 228.96 
L 133.070884 228.96 
L 133.070884 116.412632 
L 130.027248 116.412632 
z
" clip-path="url(#p176d9b4039)" style="fill: #ff7f0e"/>
   </g>
   <g id="patch_131">
    <path d="M 133.070884 228.96 
L 136.114521 228.96 
L 136.114521 112.244211 
L 133.070884 112.244211 
z
" clip-path="url(#p176d9b4039)" style="fill: #ff7f0e"/>
   </g>
   <g id="patch_132">
    <path d="M 136.114521 228.96 
L 139.158157 228.96 
L 139.158157 110.391579 
L 136.114521 110.391579 
z
" clip-path="url(#p176d9b4039)" style="fill: #ff7f0e"/>
   </g>
   <g id="patch_133">
    <path d="M 139.158157 228.96 
L 142.201793 228.96 
L 142.201793 116.181053 
L 139.158157 116.181053 
z
" clip-path="url(#p176d9b4039)" style="fill: #ff7f0e"/>
   </g>
   <g id="patch_134">
    <path d="M 142.201793 228.96 
L 145.24543 228.96 
L 145.24543 109.581053 
L 142.201793 109.581053 
z
" clip-path="url(#p176d9b4039)" style="fill: #ff7f0e"/>
   </g>
   <g id="patch_135">
    <path d="M 145.24543 228.96 
L 148.289066 228.96 
L 148.289066 113.402105 
L 145.24543 113.402105 
z
" clip-path="url(#p176d9b4039)" style="fill: #ff7f0e"/>
   </g>
   <g id="patch_136">
    <path d="M 148.289066 228.96 
L 151.332702 228.96 
L 151.332702 120.233684 
L 148.289066 120.233684 
z
" clip-path="url(#p176d9b4039)" style="fill: #ff7f0e"/>
   </g>
   <g id="patch_137">
    <path d="M 151.332702 228.96 
L 154.376339 228.96 
L 154.376339 116.76 
L 151.332702 116.76 
z
" clip-path="url(#p176d9b4039)" style="fill: #ff7f0e"/>
   </g>
   <g id="patch_138">
    <path d="M 154.376339 228.96 
L 157.419975 228.96 
L 157.419975 114.096842 
L 154.376339 114.096842 
z
" clip-path="url(#p176d9b4039)" style="fill: #ff7f0e"/>
   </g>
   <g id="patch_139">
    <path d="M 157.419975 228.96 
L 160.463611 228.96 
L 160.463611 105.412632 
L 157.419975 105.412632 
z
" clip-path="url(#p176d9b4039)" style="fill: #ff7f0e"/>
   </g>
   <g id="patch_140">
    <path d="M 160.463611 228.96 
L 163.507248 228.96 
L 163.507248 109.233684 
L 160.463611 109.233684 
z
" clip-path="url(#p176d9b4039)" style="fill: #ff7f0e"/>
   </g>
   <g id="patch_141">
    <path d="M 163.507248 228.96 
L 166.550884 228.96 
L 166.550884 111.202105 
L 163.507248 111.202105 
z
" clip-path="url(#p176d9b4039)" style="fill: #ff7f0e"/>
   </g>
   <g id="patch_142">
    <path d="M 166.550884 228.96 
L 169.594521 228.96 
L 169.594521 114.444211 
L 166.550884 114.444211 
z
" clip-path="url(#p176d9b4039)" style="fill: #ff7f0e"/>
   </g>
   <g id="patch_143">
    <path d="M 169.594521 228.96 
L 172.638157 228.96 
L 172.638157 112.475789 
L 169.594521 112.475789 
z
" clip-path="url(#p176d9b4039)" style="fill: #ff7f0e"/>
   </g>
   <g id="patch_144">
    <path d="M 172.638157 228.96 
L 175.681793 228.96 
L 175.681793 112.475789 
L 172.638157 112.475789 
z
" clip-path="url(#p176d9b4039)" style="fill: #ff7f0e"/>
   </g>
   <g id="patch_145">
    <path d="M 175.681793 228.96 
L 178.72543 228.96 
L 178.72543 106.917895 
L 175.681793 106.917895 
z
" clip-path="url(#p176d9b4039)" style="fill: #ff7f0e"/>
   </g>
   <g id="patch_146">
    <path d="M 178.72543 228.96 
L 181.769066 228.96 
L 181.769066 108.654737 
L 178.72543 108.654737 
z
" clip-path="url(#p176d9b4039)" style="fill: #ff7f0e"/>
   </g>
   <g id="patch_147">
    <path d="M 181.769066 228.96 
L 184.812702 228.96 
L 184.812702 108.770526 
L 181.769066 108.770526 
z
" clip-path="url(#p176d9b4039)" style="fill: #ff7f0e"/>
   </g>
   <g id="patch_148">
    <path d="M 184.812702 228.96 
L 187.856339 228.96 
L 187.856339 114.907368 
L 184.812702 114.907368 
z
" clip-path="url(#p176d9b4039)" style="fill: #ff7f0e"/>
   </g>
   <g id="patch_149">
    <path d="M 187.856339 228.96 
L 190.899975 228.96 
L 190.899975 115.833684 
L 187.856339 115.833684 
z
" clip-path="url(#p176d9b4039)" style="fill: #ff7f0e"/>
   </g>
   <g id="patch_150">
    <path d="M 190.899975 228.96 
L 193.943611 228.96 
L 193.943611 108.886316 
L 190.899975 108.886316 
z
" clip-path="url(#p176d9b4039)" style="fill: #ff7f0e"/>
   </g>
   <g id="patch_151">
    <path d="M 193.943611 228.96 
L 196.987248 228.96 
L 196.987248 112.244211 
L 193.943611 112.244211 
z
" clip-path="url(#p176d9b4039)" style="fill: #ff7f0e"/>
   </g>
   <g id="patch_152">
    <path d="M 196.987248 228.96 
L 200.030884 228.96 
L 200.030884 117.686316 
L 196.987248 117.686316 
z
" clip-path="url(#p176d9b4039)" style="fill: #ff7f0e"/>
   </g>
   <g id="patch_153">
    <path d="M 200.030884 228.96 
L 203.074521 228.96 
L 203.074521 116.181053 
L 200.030884 116.181053 
z
" clip-path="url(#p176d9b4039)" style="fill: #ff7f0e"/>
   </g>
   <g id="patch_154">
    <path d="M 203.074521 228.96 
L 206.118157 228.96 
L 206.118157 112.707368 
L 203.074521 112.707368 
z
" clip-path="url(#p176d9b4039)" style="fill: #ff7f0e"/>
   </g>
   <g id="patch_155">
    <path d="M 206.118157 228.96 
L 209.161793 228.96 
L 209.161793 117.802105 
L 206.118157 117.802105 
z
" clip-path="url(#p176d9b4039)" style="fill: #ff7f0e"/>
   </g>
   <g id="patch_156">
    <path d="M 209.161793 228.96 
L 212.20543 228.96 
L 212.20543 112.012632 
L 209.161793 112.012632 
z
" clip-path="url(#p176d9b4039)" style="fill: #ff7f0e"/>
   </g>
   <g id="patch_157">
    <path d="M 212.20543 228.96 
L 215.249066 228.96 
L 215.249066 116.181053 
L 212.20543 116.181053 
z
" clip-path="url(#p176d9b4039)" style="fill: #ff7f0e"/>
   </g>
   <g id="patch_158">
    <path d="M 215.249066 228.96 
L 218.292702 228.96 
L 218.292702 118.96 
L 215.249066 118.96 
z
" clip-path="url(#p176d9b4039)" style="fill: #ff7f0e"/>
   </g>
   <g id="patch_159">
    <path d="M 218.292702 228.96 
L 221.336339 228.96 
L 221.336339 110.854737 
L 218.292702 110.854737 
z
" clip-path="url(#p176d9b4039)" style="fill: #ff7f0e"/>
   </g>
   <g id="patch_160">
    <path d="M 221.336339 228.96 
L 224.379975 228.96 
L 224.379975 113.054737 
L 221.336339 113.054737 
z
" clip-path="url(#p176d9b4039)" style="fill: #ff7f0e"/>
   </g>
   <g id="patch_161">
    <path d="M 224.379975 228.96 
L 227.423611 228.96 
L 227.423611 114.791579 
L 224.379975 114.791579 
z
" clip-path="url(#p176d9b4039)" style="fill: #ff7f0e"/>
   </g>
   <g id="patch_162">
    <path d="M 227.423611 228.96 
L 230.467248 228.96 
L 230.467248 113.286316 
L 227.423611 113.286316 
z
" clip-path="url(#p176d9b4039)" style="fill: #ff7f0e"/>
   </g>
   <g id="patch_163">
    <path d="M 230.467248 228.96 
L 233.510884 228.96 
L 233.510884 109.233684 
L 230.467248 109.233684 
z
" clip-path="url(#p176d9b4039)" style="fill: #ff7f0e"/>
   </g>
   <g id="patch_164">
    <path d="M 233.510884 228.96 
L 236.554521 228.96 
L 236.554521 119.654737 
L 233.510884 119.654737 
z
" clip-path="url(#p176d9b4039)" style="fill: #ff7f0e"/>
   </g>
   <g id="patch_165">
    <path d="M 236.554521 228.96 
L 239.598157 228.96 
L 239.598157 111.086316 
L 236.554521 111.086316 
z
" clip-path="url(#p176d9b4039)" style="fill: #ff7f0e"/>
   </g>
   <g id="patch_166">
    <path d="M 239.598157 228.96 
L 242.641793 228.96 
L 242.641793 113.633684 
L 239.598157 113.633684 
z
" clip-path="url(#p176d9b4039)" style="fill: #ff7f0e"/>
   </g>
   <g id="patch_167">
    <path d="M 242.641793 228.96 
L 245.68543 228.96 
L 245.68543 113.054737 
L 242.641793 113.054737 
z
" clip-path="url(#p176d9b4039)" style="fill: #ff7f0e"/>
   </g>
   <g id="patch_168">
    <path d="M 245.68543 228.96 
L 248.729066 228.96 
L 248.729066 110.970526 
L 245.68543 110.970526 
z
" clip-path="url(#p176d9b4039)" style="fill: #ff7f0e"/>
   </g>
   <g id="patch_169">
    <path d="M 248.729066 228.96 
L 251.772702 228.96 
L 251.772702 101.938947 
L 248.729066 101.938947 
z
" clip-path="url(#p176d9b4039)" style="fill: #ff7f0e"/>
   </g>
   <g id="patch_170">
    <path d="M 251.772702 228.96 
L 254.816339 228.96 
L 254.816339 114.096842 
L 251.772702 114.096842 
z
" clip-path="url(#p176d9b4039)" style="fill: #ff7f0e"/>
   </g>
   <g id="patch_171">
    <path d="M 254.816339 228.96 
L 257.859975 228.96 
L 257.859975 116.76 
L 254.816339 116.76 
z
" clip-path="url(#p176d9b4039)" style="fill: #ff7f0e"/>
   </g>
   <g id="patch_172">
    <path d="M 257.859975 228.96 
L 260.903611 228.96 
L 260.903611 113.633684 
L 257.859975 113.633684 
z
" clip-path="url(#p176d9b4039)" style="fill: #ff7f0e"/>
   </g>
   <g id="patch_173">
    <path d="M 260.903611 228.96 
L 263.947248 228.96 
L 263.947248 115.254737 
L 260.903611 115.254737 
z
" clip-path="url(#p176d9b4039)" style="fill: #ff7f0e"/>
   </g>
   <g id="patch_174">
    <path d="M 263.947248 228.96 
L 266.990884 228.96 
L 266.990884 109.581053 
L 263.947248 109.581053 
z
" clip-path="url(#p176d9b4039)" style="fill: #ff7f0e"/>
   </g>
   <g id="patch_175">
    <path d="M 266.990884 228.96 
L 270.034521 228.96 
L 270.034521 113.981053 
L 266.990884 113.981053 
z
" clip-path="url(#p176d9b4039)" style="fill: #ff7f0e"/>
   </g>
   <g id="patch_176">
    <path d="M 270.034521 228.96 
L 273.078157 228.96 
L 273.078157 117.686316 
L 270.034521 117.686316 
z
" clip-path="url(#p176d9b4039)" style="fill: #ff7f0e"/>
   </g>
   <g id="patch_177">
    <path d="M 273.078157 228.96 
L 276.121793 228.96 
L 276.121793 114.212632 
L 273.078157 114.212632 
z
" clip-path="url(#p176d9b4039)" style="fill: #ff7f0e"/>
   </g>
   <g id="patch_178">
    <path d="M 276.121793 228.96 
L 279.16543 228.96 
L 279.16543 111.781053 
L 276.121793 111.781053 
z
" clip-path="url(#p176d9b4039)" style="fill: #ff7f0e"/>
   </g>
   <g id="patch_179">
    <path d="M 279.16543 228.96 
L 282.209066 228.96 
L 282.209066 109.696842 
L 279.16543 109.696842 
z
" clip-path="url(#p176d9b4039)" style="fill: #ff7f0e"/>
   </g>
   <g id="patch_180">
    <path d="M 282.209066 228.96 
L 285.252702 228.96 
L 285.252702 115.949474 
L 282.209066 115.949474 
z
" clip-path="url(#p176d9b4039)" style="fill: #ff7f0e"/>
   </g>
   <g id="patch_181">
    <path d="M 285.252702 228.96 
L 288.296339 228.96 
L 288.296339 116.644211 
L 285.252702 116.644211 
z
" clip-path="url(#p176d9b4039)" style="fill: #ff7f0e"/>
   </g>
   <g id="patch_182">
    <path d="M 288.296339 228.96 
L 291.339975 228.96 
L 291.339975 113.865263 
L 288.296339 113.865263 
z
" clip-path="url(#p176d9b4039)" style="fill: #ff7f0e"/>
   </g>
   <g id="patch_183">
    <path d="M 291.339975 228.96 
L 294.383611 228.96 
L 294.383611 109.117895 
L 291.339975 109.117895 
z
" clip-path="url(#p176d9b4039)" style="fill: #ff7f0e"/>
   </g>
   <g id="patch_184">
    <path d="M 294.383611 228.96 
L 297.427248 228.96 
L 297.427248 116.644211 
L 294.383611 116.644211 
z
" clip-path="url(#p176d9b4039)" style="fill: #ff7f0e"/>
   </g>
   <g id="patch_185">
    <path d="M 297.427248 228.96 
L 300.470884 228.96 
L 300.470884 112.012632 
L 297.427248 112.012632 
z
" clip-path="url(#p176d9b4039)" style="fill: #ff7f0e"/>
   </g>
   <g id="patch_186">
    <path d="M 300.470884 228.96 
L 303.514521 228.96 
L 303.514521 114.444211 
L 300.470884 114.444211 
z
" clip-path="url(#p176d9b4039)" style="fill: #ff7f0e"/>
   </g>
   <g id="patch_187">
    <path d="M 303.514521 228.96 
L 306.558157 228.96 
L 306.558157 109.812632 
L 303.514521 109.812632 
z
" clip-path="url(#p176d9b4039)" style="fill: #ff7f0e"/>
   </g>
   <g id="patch_188">
    <path d="M 306.558157 228.96 
L 309.601793 228.96 
L 309.601793 117.107368 
L 306.558157 117.107368 
z
" clip-path="url(#p176d9b4039)" style="fill: #ff7f0e"/>
   </g>
   <g id="patch_189">
    <path d="M 309.601793 228.96 
L 312.64543 228.96 
L 312.64543 112.591579 
L 309.601793 112.591579 
z
" clip-path="url(#p176d9b4039)" style="fill: #ff7f0e"/>
   </g>
   <g id="patch_190">
    <path d="M 312.64543 228.96 
L 315.689066 228.96 
L 315.689066 113.865263 
L 312.64543 113.865263 
z
" clip-path="url(#p176d9b4039)" style="fill: #ff7f0e"/>
   </g>
   <g id="patch_191">
    <path d="M 315.689066 228.96 
L 318.732702 228.96 
L 318.732702 108.538947 
L 315.689066 108.538947 
z
" clip-path="url(#p176d9b4039)" style="fill: #ff7f0e"/>
   </g>
   <g id="patch_192">
    <path d="M 318.732702 228.96 
L 321.776339 228.96 
L 321.776339 116.296842 
L 318.732702 116.296842 
z
" clip-path="url(#p176d9b4039)" style="fill: #ff7f0e"/>
   </g>
   <g id="patch_193">
    <path d="M 321.776339 228.96 
L 324.819975 228.96 
L 324.819975 112.36 
L 321.776339 112.36 
z
" clip-path="url(#p176d9b4039)" style="fill: #ff7f0e"/>
   </g>
   <g id="patch_194">
    <path d="M 324.819975 228.96 
L 327.863611 228.96 
L 327.863611 110.275789 
L 324.819975 110.275789 
z
" clip-path="url(#p176d9b4039)" style="fill: #ff7f0e"/>
   </g>
   <g id="patch_195">
    <path d="M 327.863611 228.96 
L 330.907248 228.96 
L 330.907248 109.233684 
L 327.863611 109.233684 
z
" clip-path="url(#p176d9b4039)" style="fill: #ff7f0e"/>
   </g>
   <g id="patch_196">
    <path d="M 330.907248 228.96 
L 333.950884 228.96 
L 333.950884 120.233684 
L 330.907248 120.233684 
z
" clip-path="url(#p176d9b4039)" style="fill: #ff7f0e"/>
   </g>
   <g id="patch_197">
    <path d="M 333.950884 228.96 
L 336.994521 228.96 
L 336.994521 109.812632 
L 333.950884 109.812632 
z
" clip-path="url(#p176d9b4039)" style="fill: #ff7f0e"/>
   </g>
   <g id="patch_198">
    <path d="M 336.994521 228.96 
L 340.038157 228.96 
L 340.038157 116.412632 
L 336.994521 116.412632 
z
" clip-path="url(#p176d9b4039)" style="fill: #ff7f0e"/>
   </g>
   <g id="patch_199">
    <path d="M 340.038157 228.96 
L 343.081793 228.96 
L 343.081793 119.538947 
L 340.038157 119.538947 
z
" clip-path="url(#p176d9b4039)" style="fill: #ff7f0e"/>
   </g>
   <g id="patch_200">
    <path d="M 343.081793 228.96 
L 346.12543 228.96 
L 346.12543 117.917895 
L 343.081793 117.917895 
z
" clip-path="url(#p176d9b4039)" style="fill: #ff7f0e"/>
   </g>
   <g id="patch_201">
    <path d="M 346.12543 228.96 
L 349.169066 228.96 
L 349.169066 114.096842 
L 346.12543 114.096842 
z
" clip-path="url(#p176d9b4039)" style="fill: #ff7f0e"/>
   </g>
   <g id="patch_202">
    <path d="M 349.169066 228.96 
L 352.212702 228.96 
L 352.212702 106.802105 
L 349.169066 106.802105 
z
" clip-path="url(#p176d9b4039)" style="fill: #ff7f0e"/>
   </g>
   <g id="matplotlib.axis_1">
    <g id="xtick_1">
     <g id="line2d_1">
      <defs>
       <path id="m63a4073bbd" d="M 0 0 
L 0 3.5 
" style="stroke: #000000; stroke-width: 0.8"/>
      </defs>
      <g>
       <use xlink:href="#m63a4073bbd" x="47.847879" y="228.96" style="stroke: #000000; stroke-width: 0.8"/>
      </g>
     </g>
     <g id="text_1">
      <!-- $\mathdefault{0}$ -->
      <g transform="translate(45.544019 242.136834) scale(0.09 -0.09)">
       <defs>
        <path id="MLMRoman17-Regular-30" d="M 2221 2153 
C 2221 1732 2221 1221 2144 862 
C 2086 562 1984 377 1875 262 
C 1760 153 1638 89 1466 89 
C 1312 89 1203 141 1114 211 
C 704 537 710 1413 710 2153 
C 710 2639 710 3041 794 3432 
C 870 3770 1094 4096 1466 4096 
C 1600 4096 1754 4045 1882 3923 
C 2227 3591 2221 2850 2221 2153 
z
M 2746 2083 
C 2746 2300 2746 2607 2694 2920 
C 2656 3176 2586 3438 2464 3674 
C 2285 4013 1952 4313 1466 4313 
C 1318 4313 1158 4281 1005 4211 
C 352 3898 186 3016 186 2083 
C 186 1879 186 1617 224 1336 
C 320 600 666 -128 1466 -128 
C 1606 -128 1773 -102 1946 -19 
C 2573 294 2746 1151 2746 2083 
z
" transform="scale(0.015625)"/>
       </defs>
       <use xlink:href="#MLMRoman17-Regular-30" transform="scale(0.996264)"/>
      </g>
     </g>
    </g>
    <g id="xtick_2">
     <g id="line2d_2">
      <g>
       <use xlink:href="#m63a4073bbd" x="108.72113" y="228.96" style="stroke: #000000; stroke-width: 0.8"/>
      </g>
     </g>
     <g id="text_2">
      <!-- $\mathdefault{200}$ -->
      <g transform="translate(101.809548 242.136834) scale(0.09 -0.09)">
       <defs>
        <path id="MLMRoman17-Regular-32" d="M 525 2688 
C 710 2688 838 2816 838 3007 
C 838 3199 704 3320 525 3320 
C 518 3320 512 3320 499 3320 
C 557 3515 646 3664 755 3774 
C 890 3910 1062 4007 1306 4007 
C 1434 4007 1555 3982 1658 3937 
C 1965 3802 2170 3469 2170 3039 
C 2170 2801 2106 2577 2010 2366 
C 1882 2097 1696 1853 1491 1622 
L 218 179 
C 211 166 205 154 205 141 
L 205 -7 
C 205 -39 230 -64 262 -64 
L 2515 -64 
C 2541 -64 2566 -45 2573 -13 
L 2726 979 
C 2726 979 2726 985 2726 985 
C 2726 1017 2701 1042 2669 1042 
L 2554 1042 
C 2522 1042 2502 1023 2496 991 
C 2464 741 2432 607 2406 536 
C 2394 498 2387 478 2368 453 
C 2272 415 1926 415 1830 415 
L 742 415 
L 1862 1551 
C 2035 1712 2227 1892 2381 2105 
C 2560 2336 2726 2644 2726 3036 
C 2726 3228 2688 3408 2618 3562 
C 2426 3986 1965 4288 1395 4288 
C 1152 4288 934 4218 755 4095 
C 454 3890 205 3491 205 3028 
C 205 2823 326 2688 525 2688 
z
" transform="scale(0.015625)"/>
       </defs>
       <use xlink:href="#MLMRoman17-Regular-32" transform="scale(0.996264)"/>
       <use xlink:href="#MLMRoman17-Regular-30" transform="translate(45.690948 0) scale(0.996264)"/>
       <use xlink:href="#MLMRoman17-Regular-30" transform="translate(91.381897 0) scale(0.996264)"/>
      </g>
     </g>
    </g>
    <g id="xtick_3">
     <g id="line2d_3">
      <g>
       <use xlink:href="#m63a4073bbd" x="169.594381" y="228.96" style="stroke: #000000; stroke-width: 0.8"/>
      </g>
     </g>
     <g id="text_3">
      <!-- $\mathdefault{400}$ -->
      <g transform="translate(162.682799 242.136834) scale(0.09 -0.09)">
       <defs>
        <path id="MLMRoman17-Regular-34" d="M 1741 1305 
L 358 1305 
L 1741 3504 
L 1741 1305 
z
M 2029 4320 
C 2010 4320 1990 4307 1978 4295 
L 77 1279 
C 77 1266 70 1260 70 1247 
L 70 1081 
C 70 1050 96 1024 128 1024 
L 1722 1024 
L 1722 450 
C 1722 411 1722 379 1722 353 
C 1702 179 1510 211 1318 211 
L 1197 211 
C 1165 211 1139 185 1139 153 
L 1139 -13 
C 1139 -42 1165 -64 1197 -64 
C 1402 -64 1747 -64 1965 -64 
C 2182 -64 2528 -64 2733 -64 
C 2765 -64 2790 -40 2790 -9 
L 2790 153 
C 2790 185 2765 211 2733 211 
L 2611 211 
C 2502 211 2419 217 2362 223 
C 2221 242 2208 295 2208 450 
L 2208 1024 
L 2803 1024 
C 2835 1024 2861 1050 2861 1082 
L 2861 1248 
C 2861 1280 2835 1305 2803 1305 
L 2208 1305 
L 2208 4122 
C 2208 4269 2176 4320 2029 4320 
z
" transform="scale(0.015625)"/>
       </defs>
       <use xlink:href="#MLMRoman17-Regular-34" transform="scale(0.996264)"/>
       <use xlink:href="#MLMRoman17-Regular-30" transform="translate(45.690948 0) scale(0.996264)"/>
       <use xlink:href="#MLMRoman17-Regular-30" transform="translate(91.381897 0) scale(0.996264)"/>
      </g>
     </g>
    </g>
    <g id="xtick_4">
     <g id="line2d_4">
      <g>
       <use xlink:href="#m63a4073bbd" x="230.467632" y="228.96" style="stroke: #000000; stroke-width: 0.8"/>
      </g>
     </g>
     <g id="text_4">
      <!-- $\mathdefault{600}$ -->
      <g transform="translate(223.55605 242.136834) scale(0.09 -0.09)">
       <defs>
        <path id="MLMRoman17-Regular-36" d="M 749 1494 
C 749 1583 755 1685 774 1787 
C 851 2171 1043 2560 1504 2560 
C 1805 2560 1971 2388 2086 2151 
C 2195 1921 2195 1672 2195 1348 
C 2195 1194 2195 1060 2182 939 
C 2144 511 1939 141 1478 141 
C 858 141 749 913 749 1494 
z
M 736 2286 
C 742 2918 883 3336 1062 3596 
C 1216 3823 1466 4032 1811 4032 
C 2010 4032 2195 3976 2291 3868 
C 2144 3849 2048 3767 2048 3597 
C 2048 3427 2170 3313 2336 3313 
C 2515 3313 2624 3433 2624 3610 
C 2624 4066 2259 4294 1805 4294 
C 1626 4294 1446 4256 1274 4173 
C 1075 4084 890 3937 730 3747 
C 403 3359 186 2780 186 2042 
C 186 1342 288 814 544 420 
C 723 127 1037 -128 1478 -128 
C 2170 -128 2746 517 2746 1340 
C 2746 1615 2688 1864 2579 2081 
C 2400 2452 2029 2777 1517 2777 
C 1120 2777 883 2547 736 2286 
z
" transform="scale(0.015625)"/>
       </defs>
       <use xlink:href="#MLMRoman17-Regular-36" transform="scale(0.996264)"/>
       <use xlink:href="#MLMRoman17-Regular-30" transform="translate(45.690948 0) scale(0.996264)"/>
       <use xlink:href="#MLMRoman17-Regular-30" transform="translate(91.381897 0) scale(0.996264)"/>
      </g>
     </g>
    </g>
    <g id="xtick_5">
     <g id="line2d_5">
      <g>
       <use xlink:href="#m63a4073bbd" x="291.340883" y="228.96" style="stroke: #000000; stroke-width: 0.8"/>
      </g>
     </g>
     <g id="text_5">
      <!-- $\mathdefault{800}$ -->
      <g transform="translate(284.429301 242.136834) scale(0.09 -0.09)">
       <defs>
        <path id="MLMRoman17-Regular-38" d="M 2426 910 
C 2426 763 2374 637 2291 522 
C 2138 306 1830 141 1472 141 
C 1286 141 1120 185 973 261 
C 723 389 506 650 506 999 
C 506 1158 544 1304 614 1445 
C 755 1705 1005 1928 1274 2055 
L 2048 1533 
C 2195 1419 2426 1216 2426 910 
z
M 2278 3320 
C 2278 3104 2182 2926 2061 2780 
C 1952 2659 1766 2513 1638 2455 
C 1632 2455 1619 2468 1606 2474 
L 934 2926 
C 800 3021 653 3187 653 3409 
C 653 3523 691 3632 762 3720 
C 896 3899 1158 4032 1459 4032 
C 1920 4032 2278 3708 2278 3320 
z
M 1850 2316 
C 1971 2379 2099 2462 2208 2551 
C 2413 2723 2611 2951 2611 3321 
C 2611 3409 2598 3499 2573 3575 
C 2445 4001 1997 4294 1472 4294 
C 1267 4294 1075 4243 902 4161 
C 595 3995 320 3678 320 3239 
C 320 2933 422 2724 627 2527 
C 742 2405 915 2298 1062 2195 
C 640 1973 154 1635 154 992 
C 154 890 166 795 192 700 
C 339 216 851 -128 1459 -128 
C 1696 -128 1920 -70 2118 31 
C 2464 210 2778 572 2778 1068 
C 2778 1781 2259 2017 1850 2316 
z
" transform="scale(0.015625)"/>
       </defs>
       <use xlink:href="#MLMRoman17-Regular-38" transform="scale(0.996264)"/>
       <use xlink:href="#MLMRoman17-Regular-30" transform="translate(45.690948 0) scale(0.996264)"/>
       <use xlink:href="#MLMRoman17-Regular-30" transform="translate(91.381897 0) scale(0.996264)"/>
      </g>
     </g>
    </g>
    <g id="xtick_6">
     <g id="line2d_6">
      <g>
       <use xlink:href="#m63a4073bbd" x="352.214134" y="228.96" style="stroke: #000000; stroke-width: 0.8"/>
      </g>
     </g>
     <g id="text_6">
      <!-- $\mathdefault{1000}$ -->
      <g transform="translate(342.998692 242.136834) scale(0.09 -0.09)">
       <defs>
        <path id="MLMRoman17-Regular-31" d="M 499 3669 
C 499 3663 499 3656 499 3642 
C 499 3610 525 3584 557 3584 
C 787 3584 1101 3648 1286 3737 
L 1286 454 
C 1286 319 1274 268 1171 242 
C 1062 211 960 211 781 211 
L 589 211 
C 557 211 531 185 531 153 
L 531 -13 
C 531 -42 557 -64 589 -64 
C 589 -64 1523 -64 1523 -64 
C 1523 -64 2458 -64 2458 -64 
C 2490 -64 2515 -40 2515 -9 
L 2515 153 
C 2515 185 2490 211 2458 211 
L 2266 211 
C 2131 211 2029 211 1958 217 
C 1798 236 1760 275 1760 447 
L 1760 4058 
C 1760 4192 1741 4256 1606 4256 
C 1587 4256 1574 4250 1562 4238 
C 1357 4006 1037 3878 621 3878 
C 621 3878 621 3878 614 3878 
C 493 3878 499 3806 499 3669 
z
" transform="scale(0.015625)"/>
       </defs>
       <use xlink:href="#MLMRoman17-Regular-31" transform="scale(0.996264)"/>
       <use xlink:href="#MLMRoman17-Regular-30" transform="translate(45.690948 0) scale(0.996264)"/>
       <use xlink:href="#MLMRoman17-Regular-30" transform="translate(91.381897 0) scale(0.996264)"/>
       <use xlink:href="#MLMRoman17-Regular-30" transform="translate(137.072845 0) scale(0.996264)"/>
      </g>
     </g>
    </g>
   </g>
   <g id="matplotlib.axis_2">
    <g id="ytick_1">
     <g id="line2d_7">
      <defs>
       <path id="m77dfa7df54" d="M 0 0 
L -3.5 0 
" style="stroke: #000000; stroke-width: 0.8"/>
      </defs>
      <g>
       <use xlink:href="#m77dfa7df54" x="32.630884" y="228.96" style="stroke: #000000; stroke-width: 0.8"/>
      </g>
     </g>
     <g id="text_7">
      <!-- $\mathdefault{0}$ -->
      <g transform="translate(21.023163 232.048417) scale(0.09 -0.09)">
       <use xlink:href="#MLMRoman17-Regular-30" transform="scale(0.996264)"/>
      </g>
     </g>
    </g>
    <g id="ytick_2">
     <g id="line2d_8">
      <g>
       <use xlink:href="#m77dfa7df54" x="32.630884" y="200.012632" style="stroke: #000000; stroke-width: 0.8"/>
      </g>
     </g>
     <g id="text_8">
      <!-- $\mathdefault{250}$ -->
      <g transform="translate(11.807721 203.101048) scale(0.09 -0.09)">
       <defs>
        <path id="MLMRoman17-Regular-35" d="M 787 2475 
L 787 3674 
C 934 3629 1126 3591 1325 3591 
C 1600 3591 1818 3655 1997 3744 
C 2214 3859 2368 4007 2470 4116 
C 2483 4122 2490 4141 2490 4154 
C 2490 4154 2490 4154 2490 4161 
C 2490 4232 2470 4296 2394 4296 
C 2355 4296 2336 4283 2298 4264 
C 2080 4173 1824 4096 1517 4096 
C 1331 4096 1050 4121 749 4257 
C 691 4283 672 4296 634 4296 
C 538 4296 538 4206 538 4104 
L 538 2239 
C 538 2131 550 2048 659 2048 
C 730 2048 755 2094 781 2135 
C 941 2362 1178 2535 1542 2535 
C 1645 2535 1766 2490 1837 2439 
C 2106 2240 2189 1855 2189 1354 
C 2189 1238 2189 1078 2157 911 
C 2080 513 1830 141 1370 141 
C 998 141 621 389 486 808 
C 493 808 499 808 506 808 
C 685 808 806 923 806 1108 
C 806 1293 691 1408 506 1408 
C 307 1408 205 1273 205 1080 
C 205 859 269 640 384 447 
C 570 137 909 -128 1382 -128 
C 2074 -128 2726 468 2726 1328 
C 2726 1739 2586 2104 2362 2367 
C 2176 2579 1914 2752 1549 2752 
C 1222 2752 973 2636 787 2475 
z
" transform="scale(0.015625)"/>
       </defs>
       <use xlink:href="#MLMRoman17-Regular-32" transform="scale(0.996264)"/>
       <use xlink:href="#MLMRoman17-Regular-35" transform="translate(45.690948 0) scale(0.996264)"/>
       <use xlink:href="#MLMRoman17-Regular-30" transform="translate(91.381897 0) scale(0.996264)"/>
      </g>
     </g>
    </g>
    <g id="ytick_3">
     <g id="line2d_9">
      <g>
       <use xlink:href="#m77dfa7df54" x="32.630884" y="171.065263" style="stroke: #000000; stroke-width: 0.8"/>
      </g>
     </g>
     <g id="text_9">
      <!-- $\mathdefault{500}$ -->
      <g transform="translate(11.807721 174.15368) scale(0.09 -0.09)">
       <use xlink:href="#MLMRoman17-Regular-35" transform="scale(0.996264)"/>
       <use xlink:href="#MLMRoman17-Regular-30" transform="translate(45.690948 0) scale(0.996264)"/>
       <use xlink:href="#MLMRoman17-Regular-30" transform="translate(91.381897 0) scale(0.996264)"/>
      </g>
     </g>
    </g>
    <g id="ytick_4">
     <g id="line2d_10">
      <g>
       <use xlink:href="#m77dfa7df54" x="32.630884" y="142.117895" style="stroke: #000000; stroke-width: 0.8"/>
      </g>
     </g>
     <g id="text_10">
      <!-- $\mathdefault{750}$ -->
      <g transform="translate(11.807721 145.206312) scale(0.09 -0.09)">
       <defs>
        <path id="MLMRoman17-Regular-37" d="M 1299 -128 
C 1510 -128 1587 26 1587 229 
L 1587 522 
C 1587 1446 1709 2153 2048 2662 
L 2931 3968 
C 2938 3974 2944 3987 2944 4000 
L 2944 4139 
C 2944 4171 2918 4197 2886 4197 
L 1382 4197 
C 1152 4197 998 4197 890 4211 
C 806 4226 730 4240 685 4282 
C 646 4318 666 4416 595 4416 
L 480 4416 
C 454 4416 429 4397 422 4364 
L 237 3159 
C 237 3159 237 3152 237 3152 
C 237 3120 262 3094 294 3094 
L 410 3094 
C 435 3094 461 3113 467 3144 
C 493 3289 525 3541 595 3674 
C 710 3712 1075 3712 1171 3712 
L 2470 3712 
L 1824 2750 
C 1555 2355 1331 1878 1190 1387 
C 1075 999 1011 598 1011 223 
C 1011 223 1011 223 1011 216 
C 1011 19 1088 -128 1299 -128 
z
" transform="scale(0.015625)"/>
       </defs>
       <use xlink:href="#MLMRoman17-Regular-37" transform="scale(0.996264)"/>
       <use xlink:href="#MLMRoman17-Regular-35" transform="translate(45.690948 0) scale(0.996264)"/>
       <use xlink:href="#MLMRoman17-Regular-30" transform="translate(91.381897 0) scale(0.996264)"/>
      </g>
     </g>
    </g>
    <g id="ytick_5">
     <g id="line2d_11">
      <g>
       <use xlink:href="#m77dfa7df54" x="32.630884" y="113.170526" style="stroke: #000000; stroke-width: 0.8"/>
      </g>
     </g>
     <g id="text_11">
      <!-- $\mathdefault{1000}$ -->
      <g transform="translate(7.2 116.258943) scale(0.09 -0.09)">
       <use xlink:href="#MLMRoman17-Regular-31" transform="scale(0.996264)"/>
       <use xlink:href="#MLMRoman17-Regular-30" transform="translate(45.690948 0) scale(0.996264)"/>
       <use xlink:href="#MLMRoman17-Regular-30" transform="translate(91.381897 0) scale(0.996264)"/>
       <use xlink:href="#MLMRoman17-Regular-30" transform="translate(137.072845 0) scale(0.996264)"/>
      </g>
     </g>
    </g>
    <g id="ytick_6">
     <g id="line2d_12">
      <g>
       <use xlink:href="#m77dfa7df54" x="32.630884" y="84.223158" style="stroke: #000000; stroke-width: 0.8"/>
      </g>
     </g>
     <g id="text_12">
      <!-- $\mathdefault{1250}$ -->
      <g transform="translate(7.2 87.311575) scale(0.09 -0.09)">
       <use xlink:href="#MLMRoman17-Regular-31" transform="scale(0.996264)"/>
       <use xlink:href="#MLMRoman17-Regular-32" transform="translate(45.690948 0) scale(0.996264)"/>
       <use xlink:href="#MLMRoman17-Regular-35" transform="translate(91.381897 0) scale(0.996264)"/>
       <use xlink:href="#MLMRoman17-Regular-30" transform="translate(137.072845 0) scale(0.996264)"/>
      </g>
     </g>
    </g>
    <g id="ytick_7">
     <g id="line2d_13">
      <g>
       <use xlink:href="#m77dfa7df54" x="32.630884" y="55.275789" style="stroke: #000000; stroke-width: 0.8"/>
      </g>
     </g>
     <g id="text_13">
      <!-- $\mathdefault{1500}$ -->
      <g transform="translate(7.2 58.364206) scale(0.09 -0.09)">
       <use xlink:href="#MLMRoman17-Regular-31" transform="scale(0.996264)"/>
       <use xlink:href="#MLMRoman17-Regular-35" transform="translate(45.690948 0) scale(0.996264)"/>
       <use xlink:href="#MLMRoman17-Regular-30" transform="translate(91.381897 0) scale(0.996264)"/>
       <use xlink:href="#MLMRoman17-Regular-30" transform="translate(137.072845 0) scale(0.996264)"/>
      </g>
     </g>
    </g>
    <g id="ytick_8">
     <g id="line2d_14">
      <g>
       <use xlink:href="#m77dfa7df54" x="32.630884" y="26.328421" style="stroke: #000000; stroke-width: 0.8"/>
      </g>
     </g>
     <g id="text_14">
      <!-- $\mathdefault{1750}$ -->
      <g transform="translate(7.2 29.416838) scale(0.09 -0.09)">
       <use xlink:href="#MLMRoman17-Regular-31" transform="scale(0.996264)"/>
       <use xlink:href="#MLMRoman17-Regular-37" transform="translate(45.690948 0) scale(0.996264)"/>
       <use xlink:href="#MLMRoman17-Regular-35" transform="translate(91.381897 0) scale(0.996264)"/>
       <use xlink:href="#MLMRoman17-Regular-30" transform="translate(137.072845 0) scale(0.996264)"/>
      </g>
     </g>
    </g>
   </g>
   <g id="patch_203">
    <path d="M 32.630884 228.96 
L 32.630884 7.2 
" style="fill: none; stroke: #000000; stroke-width: 0.8; stroke-linejoin: miter; stroke-linecap: square"/>
   </g>
   <g id="patch_204">
    <path d="M 367.430884 228.96 
L 367.430884 7.2 
" style="fill: none; stroke: #000000; stroke-width: 0.8; stroke-linejoin: miter; stroke-linecap: square"/>
   </g>
   <g id="patch_205">
    <path d="M 32.630884 228.96 
L 367.430884 228.96 
" style="fill: none; stroke: #000000; stroke-width: 0.8; stroke-linejoin: miter; stroke-linecap: square"/>
   </g>
   <g id="patch_206">
    <path d="M 32.630884 7.2 
L 367.430884 7.2 
" style="fill: none; stroke: #000000; stroke-width: 0.8; stroke-linejoin: miter; stroke-linecap: square"/>
   </g>
  </g>
 </g>
 <defs>
  <clipPath id="p176d9b4039">
   <rect x="32.630884" y="7.2" width="334.8" height="221.76"/>
  </clipPath>
 </defs>
</svg>
