<svg xmlns="http://www.w3.org/2000/svg" width="512" height="512" viewBox="0 0 512 512" version="1.1"><path d="M 231.750 75.706 C 232.988 75.944, 235.012 75.944, 236.250 75.706 C 237.488 75.467, 236.475 75.272, 234 75.272 C 231.525 75.272, 230.512 75.467, 231.750 75.706 M 243.750 75.706 C 244.988 75.944, 247.012 75.944, 248.250 75.706 C 249.488 75.467, 248.475 75.272, 246 75.272 C 243.525 75.272, 242.512 75.467, 243.750 75.706 M 144.453 115.250 L 140.500 119.500 144.750 115.547 C 148.702 111.871, 149.460 111, 148.703 111 C 148.540 111, 146.627 112.912, 144.453 115.250 M 268 144.444 C 266.392 145.322, 261.061 153.420, 253.053 167.154 C 243.325 183.837, 240.599 189.307, 240.576 192.194 C 240.518 199.214, 248.346 203.941, 254.640 200.686 C 256.783 199.578, 260.600 193.871, 269.511 178.451 C 276.105 167.042, 281.816 156.583, 282.203 155.208 C 282.610 153.759, 282.339 151.353, 281.558 149.485 C 279.086 143.569, 273.447 141.472, 268 144.444 M 20.374 357.500 C 20.376 363.550, 20.541 365.896, 20.740 362.713 C 20.939 359.531, 20.937 354.581, 20.736 351.713 C 20.535 348.846, 20.372 351.450, 20.374 357.500 M 59.500 453 C 63.320 456.850, 66.671 460, 66.946 460 C 67.221 460, 64.320 456.850, 60.500 453 C 56.680 449.150, 53.329 446, 53.054 446 C 52.779 446, 55.680 449.150, 59.500 453 M 247.966 452.750 L 242.500 458.500 248.250 453.034 C 253.592 447.956, 254.458 447, 253.716 447 C 253.560 447, 250.972 449.587, 247.966 452.750 M 149.250 491.735 C 151.863 491.941, 156.137 491.941, 158.750 491.735 C 161.363 491.529, 159.225 491.360, 154 491.360 C 148.775 491.360, 146.637 491.529, 149.250 491.735" stroke="none" fill="#6289fa" fill-rule="evenodd"/><path d="M 218.067 77.616 C 208.071 79.291, 188.805 85.562, 179.867 90.050 C 163.465 98.286, 145.514 113.065, 134.645 127.281 C 128.110 135.827, 107.541 170.873, 108.496 171.834 C 108.860 172.200, 132.860 186.052, 161.829 202.615 L 214.500 232.730 220.605 222.275 L 226.710 211.820 223.713 206.286 C 219.990 199.413, 218.999 189.798, 221.325 183.127 C 223.166 177.852, 246.294 137.312, 250.094 132.702 C 254.573 127.268, 262.224 123.749, 270.749 123.202 C 276.869 122.810, 278.363 122.367, 279.485 120.614 C 280.229 119.451, 284.692 111.835, 289.404 103.689 L 297.971 88.877 292.730 86.559 C 284.599 82.963, 272.121 79.263, 262.374 77.559 C 251.423 75.643, 229.676 75.671, 218.067 77.616 M 305.814 116.549 L 296.245 133.098 299.265 138.673 C 303.302 146.127, 304.058 155.282, 301.243 162.638 C 298.225 170.526, 275.426 209.255, 271.299 213.504 C 266.445 218.502, 260.025 221.241, 251.544 221.933 L 244.587 222.500 238.794 232.337 C 235.607 237.747, 233.007 242.472, 233.016 242.837 C 233.034 243.627, 337.319 304, 338.666 304 C 339.920 304, 355.926 276.598, 360.864 266 C 367.890 250.917, 371.200 238.823, 373.102 221.287 C 376.555 189.445, 365.544 152.401, 344.925 126.500 C 337.323 116.950, 319.038 100, 316.339 100 C 315.813 100, 311.077 107.447, 305.814 116.549" stroke="none" fill="#c8f4fe" fill-rule="evenodd"/><path d="M 389 1.612 C 365.509 6.711, 344.347 19.165, 330.106 36.270 C 326.796 40.247, 320.652 49.462, 316.454 56.750 C 312.256 64.037, 308.458 70, 308.016 70 C 307.573 70, 302.776 68.222, 297.355 66.050 C 244.689 44.940, 183.556 54.926, 140.100 91.737 C 132.174 98.451, 120.336 111.264, 114.559 119.382 C 108.491 127.909, 19.647 281.481, 14.407 292.500 C 9.341 303.153, 5.677 313.964, 2.714 327 C -0.242 340.007, -0.471 373.940, 2.310 387 C 15.452 448.722, 59.885 494.457, 120.500 508.652 C 131.624 511.257, 134.033 511.463, 153.500 511.481 C 171.857 511.498, 175.802 511.208, 184.844 509.184 C 226.711 499.808, 259.617 477.502, 282.475 443 C 290.261 431.249, 371.520 291.056, 378.113 278 C 406.063 222.654, 397.384 154.962, 356.251 107.490 C 349.747 99.984, 335.950 87.512, 329.750 83.534 C 328.238 82.564, 327 81.329, 327 80.790 C 327 80.251, 330.481 73.890, 334.737 66.655 C 351.098 38.835, 372.485 23.917, 399.956 21.162 C 438.044 17.341, 471.984 38.495, 485.537 74.502 C 492.031 91.754, 491.746 114.313, 484.812 132 C 482.280 138.458, 479.185 143.919, 426.927 234.135 C 405.061 271.884, 386.509 304.059, 385.700 305.635 C 382.407 312.052, 380.900 318.580, 380.900 326.432 C 380.900 345.534, 390.367 360.524, 407.599 368.707 C 413.919 371.709, 416.455 372.334, 424.064 372.768 C 438.908 373.614, 451.194 368.854, 461.206 358.378 C 465.876 353.492, 492 308.400, 492 305.226 C 492 299.519, 487.385 295.044, 481.500 295.044 C 479.206 295.044, 476.583 295.781, 475.351 296.772 C 474.168 297.723, 467.496 308.400, 460.523 320.500 C 453.550 332.600, 446.957 343.454, 445.871 344.619 C 444.786 345.784, 441.649 347.962, 438.901 349.457 C 434.821 351.678, 432.628 352.176, 426.938 352.176 C 421.073 352.176, 419.146 351.711, 414.762 349.234 C 405.824 344.184, 399.921 332.453, 401.617 323.111 C 402.585 317.781, 402.942 317.138, 452.541 231.500 C 477.706 188.050, 499.786 149.350, 501.608 145.500 C 507.760 132.499, 510.190 122.098, 510.716 106.500 C 511.113 94.773, 510.839 90.799, 509.030 82.025 C 500.734 41.784, 471.982 12.267, 431.500 2.432 C 423.351 0.452, 419.094 0.021, 408.500 0.102 C 401.350 0.156, 392.575 0.836, 389 1.612 M 221.500 76.480 C 186.839 81.892, 154.103 100.974, 133.748 127.631 C 130.059 132.462, 113.574 159.585, 108.026 169.952 C 107.101 171.679, 111.969 174.691, 160.628 202.503 C 190.119 219.360, 214.607 232.780, 215.045 232.326 C 215.483 231.872, 218.374 227.099, 221.469 221.720 L 227.096 211.940 224.096 205.720 C 220.310 197.872, 219.512 192.011, 221.309 185.255 C 222.870 179.386, 245.660 138.934, 250.776 132.953 C 255.586 127.328, 263.888 123.591, 271.963 123.415 L 278.500 123.274 288.250 106.507 C 293.613 97.285, 298 89.391, 298 88.963 C 298 88.032, 285.696 82.849, 278 80.538 C 262.100 75.765, 237.429 73.993, 221.500 76.480 M 312.393 104.250 C 310.728 107.138, 306.316 114.758, 302.588 121.185 L 295.811 132.870 299.053 139.455 C 303.318 148.120, 303.572 156.917, 299.790 165.089 C 295.847 173.611, 274.154 210.200, 271.219 213.279 C 266.864 217.848, 258.412 221.326, 251 221.598 L 244.500 221.837 238.165 232.500 C 234.681 238.365, 231.981 243.291, 232.165 243.447 C 233.065 244.207, 336.867 304.012, 338.124 304.494 C 339.169 304.895, 342.136 300.624, 348.696 289.276 C 363.303 264.006, 367.787 253.583, 371.619 236 C 374.213 224.096, 374.239 195.016, 371.666 183.232 C 366.183 158.121, 354.771 135.885, 338.131 117.893 C 332.236 111.518, 317.500 99, 315.892 99 C 315.633 99, 314.059 101.362, 312.393 104.250 M 268 144.444 C 266.392 145.322, 261.061 153.420, 253.053 167.154 C 243.325 183.837, 240.599 189.307, 240.576 192.194 C 240.518 199.214, 248.346 203.941, 254.640 200.686 C 256.783 199.578, 260.600 193.871, 269.511 178.451 C 276.105 167.042, 281.816 156.583, 282.203 155.208 C 282.610 153.759, 282.339 151.353, 281.558 149.485 C 279.086 143.569, 273.447 141.472, 268 144.444 M 96.650 189.800 C 52.053 266.664, 37.472 292.070, 34.095 298.797 C 29.153 308.643, 24.810 321.279, 22.341 333 C 19.899 344.590, 19.892 370.023, 22.328 382.270 C 27.769 409.630, 40.277 433.301, 59.472 452.564 C 78.325 471.484, 100.598 483.255, 129.500 489.572 C 141.514 492.199, 167.289 491.989, 180.291 489.159 C 208.113 483.104, 230.812 470.684, 250.048 450.991 C 261.368 439.402, 264.983 433.804, 297.511 377.500 C 312.763 351.100, 326.087 328.099, 327.119 326.386 L 328.995 323.272 223.748 262.443 C 165.861 228.987, 113.675 198.799, 107.778 195.357 C 101.881 191.916, 96.873 189.415, 96.650 189.800 M 496.117 261.631 C 492.504 264.162, 490.667 269.460, 492.001 273.504 C 494.181 280.108, 503.198 282.314, 508.694 277.587 C 511.096 275.521, 511.500 274.428, 511.500 270 C 511.500 265.572, 511.096 264.479, 508.694 262.413 C 505.360 259.545, 499.605 259.187, 496.117 261.631" stroke="none" fill="#040404" fill-rule="evenodd"/><path d="M 334.500 115 C 336.648 117.200, 338.631 119, 338.906 119 C 339.181 119, 337.648 117.200, 335.500 115 C 333.352 112.800, 331.369 111, 331.094 111 C 330.819 111, 332.352 112.800, 334.500 115 M 96.695 190.734 C 96.451 191.155, 83.205 214, 67.258 241.500 C 34.300 298.336, 32.161 302.361, 27.488 316.340 C 22.821 330.299, 21 341.842, 21 357.455 C 21 392.691, 33.513 424.506, 57.223 449.554 C 75.227 468.575, 96.584 480.852, 123.500 487.653 C 137.312 491.144, 160.320 491.991, 175.140 489.555 C 209.802 483.857, 242.413 463.788, 262.162 436 C 269.276 425.991, 328.185 323.771, 327.290 322.989 C 326.724 322.494, 103.216 193.292, 97.819 190.340 C 97.445 190.135, 96.939 190.312, 96.695 190.734" stroke="none" fill="#76cdf6" fill-rule="evenodd"/></svg>